<?xml version="1.0" standalone="no"?>
<!DOCTYPE svg PUBLIC "-//W3C//DTD SVG 20010904//EN"
 "http://www.w3.org/TR/2001/REC-SVG-20010904/DTD/svg10.dtd">
<svg version="1.0" xmlns="http://www.w3.org/2000/svg"
 width="1024.000000pt" height="1024.000000pt" viewBox="0 0 1024.000000 1024.000000"
 preserveAspectRatio="xMidYMid meet">
<metadata>
Created by potrace 1.11, written by Peter Selinger 2001-2013
</metadata>
<g transform="translate(0.000000,1024.000000) scale(0.100000,-0.100000)"
fill="#000000" stroke="none">
<path d="M0 5120 l0 -5120 5120 0 5120 0 0 5120 0 5120 -5120 0 -5120 0 0
-5120z m5120 1284 c0 -1246 4 -2264 8 -2262 5 2 559 562 1232 1246 l1224 1242
519 0 520 0 -24 -29 c-13 -16 -436 -458 -939 -981 -503 -523 -915 -957 -914
-964 1 -6 465 -708 1033 -1559 l1031 -1547 -537 0 -538 0 -806 1228 c-443 675
-811 1227 -818 1227 -6 0 -231 -229 -501 -510 l-490 -510 0 -717 0 -718 -445
0 -445 0 0 3560 0 3560 445 0 445 0 0 -2266z m-2981 2231 c243 -58 411 -285
411 -555 0 -172 -52 -304 -164 -415 -117 -116 -217 -156 -391 -156 -175 0
-296 50 -405 168 -162 177 -196 453 -84 682 65 133 199 241 340 275 78 19 214
19 293 1z m311 -4545 l0 -2540 -445 0 -445 0 0 2540 0 2540 445 0 445 0 0
-2540z"/>
</g>
</svg>
